<svg xmlns="http://www.w3.org/2000/svg" width="300" height="300" viewBox="0 0 300 300">
  <g fill="none" stroke="#4a7c59" stroke-opacity="0.12" stroke-width="2" stroke-linecap="round" stroke-linejoin="round">

    <!-- Maçã -->
    <g transform="translate(45,45) rotate(-14)">
      <path d="M0,-10 C -10,-20 -22,-7 -17,7 C -13,17 -3,20 0,13 C 3,20 13,17 17,7 C 22,-7 10,-20 0,-10 Z"/>
      <path d="M0,-12 L 2,-20"/>
      <path d="M2,-18 q 9,-6 13,1 q -7,4 -13,-1"/>
    </g>

    <!-- Cenoura -->
    <g transform="translate(135,42) rotate(16)">
      <path d="M-8,-12 L 8,-12 L 0,20 Z"/>
      <path d="M-5,-5 L 4,-3"/>
      <path d="M-4,2 L 5,4"/>
      <path d="M-5,-12 L -11,-23"/>
      <path d="M0,-12 L 0,-25"/>
      <path d="M5,-12 L 11,-23"/>
    </g>

    <!-- Brócolis -->
    <g transform="translate(225,50) rotate(-6)">
      <path d="M0,22 L 0,2"/>
      <circle cx="-9" cy="-5" r="7"/>
      <circle cx="0" cy="-12" r="8"/>
      <circle cx="10" cy="-5" r="7"/>
      <circle cx="-3" cy="-15" r="5"/>
      <circle cx="5" cy="-15" r="5"/>
    </g>

    <!-- Abacate -->
    <g transform="translate(60,130) rotate(12)">
      <path d="M0,-20 C 13,-20 16,-4 13,9 C 9,20 -9,20 -13,9 C -16,-4 -13,-20 0,-20 Z"/>
      <circle cx="0" cy="5" r="6"/>
    </g>

    <!-- Peixe -->
    <g transform="translate(152,128) rotate(-12)">
      <ellipse cx="0" cy="0" rx="20" ry="11"/>
      <path d="M16,0 L 28,-8 L 28,8 Z"/>
      <circle cx="-11" cy="-3" r="1.4"/>
    </g>

    <!-- Folha -->
    <g transform="translate(245,128) rotate(28)">
      <path d="M0,-18 C 11,-11 11,11 0,18 C -11,11 -11,-11 0,-18 Z"/>
      <path d="M0,-16 L 0,16"/>
      <path d="M0,-6 L 7,-10"/>
      <path d="M0,3 L -7,-1"/>
    </g>

    <!-- Banana -->
    <g transform="translate(48,218) rotate(-20)">
      <path d="M-17,-6 C -9,15 11,17 19,4 C 13,11 0,9 -8,-3 C -11,-8 -15,-8 -17,-6 Z"/>
    </g>

    <!-- Copo de água -->
    <g transform="translate(140,225) rotate(8)">
      <path d="M-11,-15 L 11,-15 L 8,17 L -8,17 Z"/>
      <path d="M-8,-2 q 4,-5 8,-1 q 5,4 8,-1"/>
    </g>

    <!-- Ovo frito -->
    <g transform="translate(235,215) rotate(-16)">
      <path d="M-15,-2 C -21,-12 -7,-16 -2,-11 C 6,-17 17,-9 15,0 C 21,8 11,15 2,11 C -7,17 -19,7 -15,-2 Z"/>
      <circle cx="0" cy="0" r="5.5"/>
    </g>

    <!-- Uvas -->
    <g transform="translate(95,250) rotate(10)">
      <path d="M0,-6 L 0,-12"/>
      <circle cx="0" cy="0" r="4.5"/>
      <circle cx="-8" cy="3" r="4.5"/>
      <circle cx="8" cy="3" r="4.5"/>
      <circle cx="-4" cy="10" r="4.5"/>
      <circle cx="4" cy="10" r="4.5"/>
      <circle cx="0" cy="17" r="4.5"/>
    </g>

    <!-- Tomate -->
    <g transform="translate(185,255) rotate(22)">
      <circle cx="0" cy="2" r="14"/>
      <path d="M0,-12 L 0,-20"/>
      <path d="M0,-14 L -7,-20"/>
      <path d="M0,-14 L 7,-20"/>
    </g>

    <!-- Folha pequena -->
    <g transform="translate(255,258) rotate(-30)">
      <path d="M0,-14 C 9,-8 9,8 0,14 C -9,8 -9,-8 0,-14 Z"/>
      <path d="M0,-12 L 0,12"/>
    </g>

  </g>
</svg>
